<mxfile host="app.diagrams.net" modified="2022-08-25T02:48:15.477Z" agent="5.0 (Macintosh; Intel Mac OS X 10_15_7) AppleWebKit/537.36 (KHTML, like Gecko) Chrome/104.0.0.0 Safari/537.36" etag="Ff4pP2Gh5xf-E6iBvHvb" version="20.2.6" type="github">
  <diagram id="xpc7PrvNd3uRbxOM0Itp" name="第 1 页">
    <mxGraphModel dx="1426" dy="623" grid="1" gridSize="10" guides="1" tooltips="1" connect="1" arrows="1" fold="1" page="1" pageScale="1" pageWidth="827" pageHeight="1169" math="0" shadow="0">
      <root>
        <mxCell id="0" />
        <mxCell id="1" parent="0" />
        <mxCell id="y05YZQ5l2cDc-y97x_Ib-1" value="&lt;span style=&quot;font-size: 24px;&quot;&gt;消息类型&lt;/span&gt;" style="rounded=0;whiteSpace=wrap;html=1;strokeColor=#97D077;" vertex="1" parent="1">
          <mxGeometry x="390" y="300" width="120" height="50" as="geometry" />
        </mxCell>
        <mxCell id="y05YZQ5l2cDc-y97x_Ib-2" value="&lt;span style=&quot;font-size: 24px;&quot;&gt;类型名称&lt;/span&gt;" style="ellipse;whiteSpace=wrap;html=1;strokeColor=#97D077;" vertex="1" parent="1">
          <mxGeometry x="160" y="300" width="130" height="50" as="geometry" />
        </mxCell>
        <mxCell id="y05YZQ5l2cDc-y97x_Ib-3" value="" style="endArrow=classic;html=1;rounded=0;exitX=0;exitY=0.5;exitDx=0;exitDy=0;strokeColor=#3399FF;" edge="1" parent="1" source="y05YZQ5l2cDc-y97x_Ib-1" target="y05YZQ5l2cDc-y97x_Ib-2">
          <mxGeometry width="50" height="50" relative="1" as="geometry">
            <mxPoint x="390" y="350" as="sourcePoint" />
            <mxPoint x="440" y="300" as="targetPoint" />
          </mxGeometry>
        </mxCell>
      </root>
    </mxGraphModel>
  </diagram>
</mxfile>
